<svg width="100" height="75" viewBox="0 0 100 75" fill="none" xmlns="http://www.w3.org/2000/svg">
<g opacity="0.27">
<path d="M28.9797 75C22.9525 74.9764 17.7664 73.4795 13.4212 70.5092C9.09946 67.5389 5.77052 63.2367 3.43442 57.6025C1.12168 51.9684 -0.0230106 45.1909 0.000350414 37.2702C0.000350414 29.3729 1.15672 22.6426 3.46946 17.0792C5.80556 11.5158 9.1345 7.2843 13.4563 4.38473C17.8014 1.46158 22.9759 0 28.9797 0C34.9834 0 40.1462 1.46158 44.468 4.38473C48.8131 7.30787 52.1538 11.5512 54.4899 17.1146C56.826 22.6544 57.9823 29.3729 57.959 37.2702C57.959 45.2145 56.7909 52.0038 54.4548 57.6379C52.1421 63.272 48.8248 67.5743 44.503 70.5446C40.1813 73.5149 35.0068 75 28.9797 75ZM28.9797 62.3055C33.0912 62.3055 36.3734 60.2192 38.8263 56.0467C41.2792 51.8741 42.494 45.6153 42.4706 37.2702C42.4706 31.7775 41.91 27.2041 40.7886 23.5502C39.6907 19.8963 38.1255 17.1499 36.0931 15.3112C34.084 13.4724 31.7129 12.553 28.9797 12.553C24.8915 12.553 21.621 14.6157 19.168 18.7412C16.7151 22.8666 15.477 29.0429 15.4536 37.2702C15.4536 42.8336 16.0026 47.4776 17.1006 51.2023C18.2219 54.9033 19.7988 57.6851 21.8312 59.5474C23.8636 61.3861 26.2464 62.3055 28.9797 62.3055Z" fill="url(#paint0_linear_1_463)"/>
<path d="M100 0.990099V73.4088H84.827V15.5233H84.4065L67.9721 25.9194V12.3409L85.7381 0.990099H100Z" fill="url(#paint1_linear_1_463)"/>
</g>
<defs>
<linearGradient id="paint0_linear_1_463" x1="0.43068" y1="37.1146" x2="210.348" y2="37.1146" gradientUnits="userSpaceOnUse">
<stop offset="0.0685746" stop-color="#3F3F3F"/>
<stop offset="0.867465" stop-color="#0C713F"/>
</linearGradient>
<linearGradient id="paint1_linear_1_463" x1="0.43068" y1="37.1146" x2="210.348" y2="37.1146" gradientUnits="userSpaceOnUse">
<stop offset="0.0685746" stop-color="#3F3F3F"/>
<stop offset="0.867465" stop-color="#0C713F"/>
</linearGradient>
</defs>
</svg>
