<svg width="120" height="75" viewBox="0 0 120 75" fill="none" xmlns="http://www.w3.org/2000/svg">
<g opacity="0.27">
<path d="M28.9945 75C22.9643 74.9764 17.7755 73.4795 13.4281 70.5092C9.10412 67.5389 5.77347 63.2367 3.43617 57.6025C1.12225 51.9684 -0.0230223 45.1909 0.000350594 37.2702C0.000350594 29.3729 1.15731 22.6426 3.47123 17.0792C5.80853 11.5158 9.13917 7.2843 13.4632 4.38473C17.8105 1.46158 22.9876 0 28.9945 0C35.0013 0 40.1668 1.46158 44.4908 4.38473C48.8381 7.30787 52.1805 11.5512 54.5178 17.1146C56.8551 22.6544 58.012 29.3729 57.9886 37.2702C57.9886 45.2145 56.82 52.0038 54.4827 57.6379C52.1688 63.272 48.8498 67.5743 44.5258 70.5446C40.2018 73.5149 35.0247 75 28.9945 75ZM28.9945 62.3055C33.1081 62.3055 36.392 60.2192 38.8462 56.0467C41.3004 51.8741 42.5157 45.6153 42.4924 37.2702C42.4924 31.7775 41.9314 27.2041 40.8095 23.5502C39.711 19.8963 38.145 17.1499 36.1116 15.3112C34.1015 13.4724 31.7291 12.553 28.9945 12.553C24.9042 12.553 21.632 14.6157 19.1779 18.7412C16.7237 22.8666 15.4849 29.0429 15.4616 37.2702C15.4616 42.8336 16.0108 47.4776 17.1094 51.2023C18.2313 54.9033 19.8089 57.6851 21.8424 59.5474C23.8758 61.3861 26.2599 62.3055 28.9945 62.3055Z" fill="url(#paint0_linear_1_464)"/>
<path d="M68.8132 73.4088V62.3762L94.3716 38.5078C96.5452 36.3861 98.3683 34.4767 99.8408 32.7793C101.337 31.082 102.47 29.4201 103.242 27.7935C104.013 26.1433 104.399 24.3635 104.399 22.454C104.399 20.3324 103.919 18.5054 102.961 16.9731C102.003 15.4173 100.694 14.2268 99.0345 13.4017C97.375 12.553 95.4935 12.1287 93.3899 12.1287C91.1928 12.1287 89.2763 12.5766 87.6402 13.4724C86.004 14.3682 84.7419 15.653 83.8537 17.3267C82.9656 19.0005 82.5215 20.9925 82.5215 23.3027H68.112C68.112 18.5644 69.1755 14.4507 71.3025 10.9618C73.4294 7.47289 76.4094 4.77369 80.2426 2.86421C84.0758 0.954738 88.4933 0 93.4951 0C98.6371 0 103.113 0.919378 106.923 2.75813C110.756 4.57332 113.736 7.09571 115.863 10.3253C117.99 13.5549 119.053 17.256 119.053 21.4286C119.053 24.1631 118.516 26.8623 117.441 29.5262C116.389 32.19 114.507 35.1485 111.796 38.4017C109.085 41.6313 105.263 45.5092 100.332 50.0354L89.8489 60.396V60.8911H120V73.4088H68.8132Z" fill="url(#paint1_linear_1_464)"/>
</g>
<defs>
<linearGradient id="paint0_linear_1_464" x1="1.06968" y1="37.1146" x2="235.9" y2="37.1146" gradientUnits="userSpaceOnUse">
<stop offset="0.0685746" stop-color="#3F3F3F"/>
<stop offset="0.867465" stop-color="#0C713F"/>
</linearGradient>
<linearGradient id="paint1_linear_1_464" x1="1.06968" y1="37.1146" x2="235.9" y2="37.1146" gradientUnits="userSpaceOnUse">
<stop offset="0.0685746" stop-color="#3F3F3F"/>
<stop offset="0.867465" stop-color="#0C713F"/>
</linearGradient>
</defs>
</svg>
