<svg width="124" height="75" viewBox="0 0 124 75" fill="none" xmlns="http://www.w3.org/2000/svg">
<g opacity="0.27">
<path d="M29.2349 75C23.1547 74.9764 17.9229 73.4795 13.5394 70.5092C9.1796 67.5389 5.82134 63.2367 3.46466 57.6025C1.13156 51.9684 -0.0232132 45.1909 0.0003535 37.2702C0.0003535 29.3729 1.16691 22.6426 3.50001 17.0792C5.85669 11.5158 9.21495 7.2843 13.5748 4.38473C17.9582 1.46158 23.1782 0 29.2349 0C35.2915 0 40.4998 1.46158 44.8596 4.38473C49.243 7.30787 52.6131 11.5512 54.9698 17.1146C57.3264 22.6544 58.493 29.3729 58.4694 37.2702C58.4694 45.2145 57.2911 52.0038 54.9344 57.6379C52.6013 63.272 49.2548 67.5743 44.895 70.5446C40.5351 73.5149 35.3151 75 29.2349 75ZM29.2349 62.3055C33.3826 62.3055 36.6938 60.2192 39.1683 56.0467C41.6428 51.8741 42.8682 45.6153 42.8447 37.2702C42.8447 31.7775 42.2791 27.2041 41.1479 23.5502C40.0402 19.8963 38.4613 17.1499 36.411 15.3112C34.3842 13.4724 31.9922 12.553 29.2349 12.553C25.1107 12.553 21.8114 14.6157 19.3369 18.7412C16.8624 22.8666 15.6133 29.0429 15.5897 37.2702C15.5897 42.8336 16.1436 47.4776 17.2512 51.2023C18.3824 54.9033 19.9732 57.6851 22.0235 59.5474C24.0738 61.3861 26.4776 62.3055 29.2349 62.3055Z" fill="url(#paint0_linear_1_465)"/>
<path d="M96.1438 74.3989C90.8648 74.3989 86.1633 73.4913 82.0391 71.6761C77.9385 69.8373 74.6981 67.3149 72.3178 64.1089C69.9611 60.8793 68.7475 57.1546 68.6768 52.9349H84.0894C84.1837 54.703 84.7611 56.2588 85.8216 57.6025C86.9056 58.9227 88.3432 59.9481 90.1343 60.6789C91.9253 61.4097 93.9403 61.7751 96.1791 61.7751C98.5122 61.7751 100.574 61.3626 102.365 60.5375C104.156 59.7124 105.559 58.5691 106.572 57.1075C107.585 55.6459 108.092 53.9604 108.092 52.0509C108.092 50.1179 107.55 48.4088 106.466 46.9236C105.406 45.4149 103.874 44.2362 101.87 43.3876C99.8909 42.5389 97.5342 42.1146 94.8005 42.1146H88.0486V30.8699H94.8005C97.11 30.8699 99.1485 30.4691 100.916 29.6676C102.707 28.8661 104.098 27.7581 105.087 26.3437C106.077 24.9057 106.572 23.232 106.572 21.3225C106.572 19.5073 106.136 17.9161 105.264 16.5488C104.416 15.1579 103.214 14.0736 101.658 13.2956C100.127 12.5177 98.3355 12.1287 96.2852 12.1287C94.2113 12.1287 92.3142 12.5059 90.5938 13.2603C88.8734 13.991 87.4948 15.0401 86.4579 16.4074C85.4209 17.7746 84.8671 19.3777 84.7964 21.2164H70.1261C70.1968 17.0438 71.3869 13.3663 73.6965 10.1839C76.006 7.00141 79.1168 4.51438 83.0289 2.72277C86.9645 0.907591 91.4069 0 96.3559 0C101.352 0 105.724 0.907591 109.471 2.72277C113.218 4.53795 116.128 6.98963 118.202 10.0778C120.3 13.1424 121.337 16.5842 121.313 20.4031C121.337 24.4578 120.076 27.8406 117.531 30.5516C115.009 33.2626 111.721 34.9835 107.668 35.7143V36.2801C112.994 36.9637 117.047 38.8142 119.828 41.8317C122.633 44.8256 124.023 48.5738 124 53.0764C124.023 57.2018 122.833 60.8675 120.429 64.0735C118.049 67.2796 114.761 69.802 110.567 71.6407C106.372 73.4795 101.564 74.3989 96.1438 74.3989Z" fill="url(#paint1_linear_1_465)"/>
</g>
<defs>
<linearGradient id="paint0_linear_1_465" x1="1.20737" y1="37.1146" x2="242.987" y2="37.1146" gradientUnits="userSpaceOnUse">
<stop offset="0.0685746" stop-color="#3F3F3F"/>
<stop offset="0.867465" stop-color="#0C713F"/>
</linearGradient>
<linearGradient id="paint1_linear_1_465" x1="1.20737" y1="37.1146" x2="242.987" y2="37.1146" gradientUnits="userSpaceOnUse">
<stop offset="0.0685746" stop-color="#3F3F3F"/>
<stop offset="0.867465" stop-color="#0C713F"/>
</linearGradient>
</defs>
</svg>
