<svg width="126" height="75" viewBox="0 0 126 75" fill="none" xmlns="http://www.w3.org/2000/svg">
<g opacity="0.27">
<path d="M29.0846 75C23.0357 74.9764 17.8307 73.4795 13.4699 70.5092C9.13242 67.5389 5.79142 63.2367 3.44686 57.6025C1.12574 51.9684 -0.0230939 45.1909 0.000351684 37.2702C0.000351684 29.3729 1.16091 22.6426 3.48203 17.0792C5.82659 11.5158 9.16759 7.2843 13.505 4.38473C17.8659 1.46158 23.0591 0 29.0846 0C35.1102 0 40.2916 1.46158 44.6291 4.38473C48.99 7.30787 52.3427 11.5512 54.6872 17.1146C57.0318 22.6544 58.1924 29.3729 58.1689 37.2702C58.1689 45.2145 56.9966 52.0038 54.6521 57.6379C52.331 63.272 49.0017 67.5743 44.6642 70.5446C40.3268 73.5149 35.1336 75 29.0846 75ZM29.0846 62.3055C33.2111 62.3055 36.5052 60.2192 38.967 56.0467C41.4287 51.8741 42.6479 45.6153 42.6245 37.2702C42.6245 31.7775 42.0618 27.2041 40.9364 23.5502C39.8344 19.8963 38.2636 17.1499 36.2238 15.3112C34.2075 13.4724 31.8278 12.553 29.0846 12.553C24.9817 12.553 21.6993 14.6157 19.2375 18.7412C16.7757 22.8666 15.5331 29.0429 15.5096 37.2702C15.5096 42.8336 16.0606 47.4776 17.1625 51.2023C18.2879 54.9033 19.8705 57.6851 21.9103 59.5474C23.95 61.3861 26.3415 62.3055 29.0846 62.3055Z" fill="url(#paint0_linear_1_466)"/>
<path d="M67.9369 60.6789V48.6209L98.0059 0.990099H108.345V17.6803H102.226L83.2704 47.843V48.4088H126V60.6789H67.9369ZM102.507 73.4088V57.0014L102.789 51.6619V0.990099H117.067V73.4088H102.507Z" fill="url(#paint1_linear_1_466)"/>
</g>
<defs>
<linearGradient id="paint0_linear_1_466" x1="1.2866" y1="37.1146" x2="245.142" y2="37.1146" gradientUnits="userSpaceOnUse">
<stop offset="0.0685746" stop-color="#3F3F3F"/>
<stop offset="0.867465" stop-color="#0C713F"/>
</linearGradient>
<linearGradient id="paint1_linear_1_466" x1="1.2866" y1="37.1146" x2="245.142" y2="37.1146" gradientUnits="userSpaceOnUse">
<stop offset="0.0685746" stop-color="#3F3F3F"/>
<stop offset="0.867465" stop-color="#0C713F"/>
</linearGradient>
</defs>
</svg>
