<svg width="121" height="121" viewBox="0 0 121 121" fill="none" xmlns="http://www.w3.org/2000/svg">
<g filter="url(#filter0_d_1_514)">
<rect x="6" y="5" width="109" height="109" rx="54.5" fill="#4D4D4D"/>
</g>
<g clip-path="url(#clip0_1_514)" filter="url(#filter1_i_1_514)">
<path d="M43.0625 32C42.0845 32 41.1466 32.3885 40.455 33.08C39.7635 33.7716 39.375 34.7095 39.375 35.6875V87.3125C39.375 88.2905 39.7635 89.2284 40.455 89.92C41.1466 90.6115 42.0845 91 43.0625 91H54.125V78.0938C54.125 77.6048 54.3193 77.1358 54.665 76.79C55.0108 76.4443 55.4798 76.25 55.9688 76.25H67.0312C67.5202 76.25 67.9892 76.4443 68.335 76.79C68.6807 77.1358 68.875 77.6048 68.875 78.0938V91H79.9375C80.9155 91 81.8534 90.6115 82.545 89.92C83.2365 89.2284 83.625 88.2905 83.625 87.3125V35.6875C83.625 34.7095 83.2365 33.7716 82.545 33.08C81.8534 32.3885 80.9155 32 79.9375 32H43.0625ZM46.75 41.2188C46.75 40.7298 46.9443 40.2608 47.29 39.915C47.6358 39.5693 48.1048 39.375 48.5938 39.375H52.2812C52.7702 39.375 53.2392 39.5693 53.585 39.915C53.9307 40.2608 54.125 40.7298 54.125 41.2188V44.9062C54.125 45.3952 53.9307 45.8642 53.585 46.21C53.2392 46.5557 52.7702 46.75 52.2812 46.75H48.5938C48.1048 46.75 47.6358 46.5557 47.29 46.21C46.9443 45.8642 46.75 45.3952 46.75 44.9062V41.2188ZM57.8125 41.2188C57.8125 40.7298 58.0068 40.2608 58.3525 39.915C58.6983 39.5693 59.1673 39.375 59.6562 39.375H63.3438C63.8327 39.375 64.3017 39.5693 64.6475 39.915C64.9932 40.2608 65.1875 40.7298 65.1875 41.2188V44.9062C65.1875 45.3952 64.9932 45.8642 64.6475 46.21C64.3017 46.5557 63.8327 46.75 63.3438 46.75H59.6562C59.1673 46.75 58.6983 46.5557 58.3525 46.21C58.0068 45.8642 57.8125 45.3952 57.8125 44.9062V41.2188ZM70.7188 39.375H74.4062C74.8952 39.375 75.3642 39.5693 75.71 39.915C76.0557 40.2608 76.25 40.7298 76.25 41.2188V44.9062C76.25 45.3952 76.0557 45.8642 75.71 46.21C75.3642 46.5557 74.8952 46.75 74.4062 46.75H70.7188C70.2298 46.75 69.7608 46.5557 69.415 46.21C69.0693 45.8642 68.875 45.3952 68.875 44.9062V41.2188C68.875 40.7298 69.0693 40.2608 69.415 39.915C69.7608 39.5693 70.2298 39.375 70.7188 39.375ZM46.75 52.2812C46.75 51.7923 46.9443 51.3233 47.29 50.9775C47.6358 50.6318 48.1048 50.4375 48.5938 50.4375H52.2812C52.7702 50.4375 53.2392 50.6318 53.585 50.9775C53.9307 51.3233 54.125 51.7923 54.125 52.2812V55.9688C54.125 56.4577 53.9307 56.9267 53.585 57.2725C53.2392 57.6182 52.7702 57.8125 52.2812 57.8125H48.5938C48.1048 57.8125 47.6358 57.6182 47.29 57.2725C46.9443 56.9267 46.75 56.4577 46.75 55.9688V52.2812ZM59.6562 50.4375H63.3438C63.8327 50.4375 64.3017 50.6318 64.6475 50.9775C64.9932 51.3233 65.1875 51.7923 65.1875 52.2812V55.9688C65.1875 56.4577 64.9932 56.9267 64.6475 57.2725C64.3017 57.6182 63.8327 57.8125 63.3438 57.8125H59.6562C59.1673 57.8125 58.6983 57.6182 58.3525 57.2725C58.0068 56.9267 57.8125 56.4577 57.8125 55.9688V52.2812C57.8125 51.7923 58.0068 51.3233 58.3525 50.9775C58.6983 50.6318 59.1673 50.4375 59.6562 50.4375ZM68.875 52.2812C68.875 51.7923 69.0693 51.3233 69.415 50.9775C69.7608 50.6318 70.2298 50.4375 70.7188 50.4375H74.4062C74.8952 50.4375 75.3642 50.6318 75.71 50.9775C76.0557 51.3233 76.25 51.7923 76.25 52.2812V55.9688C76.25 56.4577 76.0557 56.9267 75.71 57.2725C75.3642 57.6182 74.8952 57.8125 74.4062 57.8125H70.7188C70.2298 57.8125 69.7608 57.6182 69.415 57.2725C69.0693 56.9267 68.875 56.4577 68.875 55.9688V52.2812ZM48.5938 61.5H52.2812C52.7702 61.5 53.2392 61.6943 53.585 62.04C53.9307 62.3858 54.125 62.8548 54.125 63.3438V67.0312C54.125 67.5202 53.9307 67.9892 53.585 68.335C53.2392 68.6807 52.7702 68.875 52.2812 68.875H48.5938C48.1048 68.875 47.6358 68.6807 47.29 68.335C46.9443 67.9892 46.75 67.5202 46.75 67.0312V63.3438C46.75 62.8548 46.9443 62.3858 47.29 62.04C47.6358 61.6943 48.1048 61.5 48.5938 61.5ZM57.8125 63.3438C57.8125 62.8548 58.0068 62.3858 58.3525 62.04C58.6983 61.6943 59.1673 61.5 59.6562 61.5H63.3438C63.8327 61.5 64.3017 61.6943 64.6475 62.04C64.9932 62.3858 65.1875 62.8548 65.1875 63.3438V67.0312C65.1875 67.5202 64.9932 67.9892 64.6475 68.335C64.3017 68.6807 63.8327 68.875 63.3438 68.875H59.6562C59.1673 68.875 58.6983 68.6807 58.3525 68.335C58.0068 67.9892 57.8125 67.5202 57.8125 67.0312V63.3438ZM70.7188 61.5H74.4062C74.8952 61.5 75.3642 61.6943 75.71 62.04C76.0557 62.3858 76.25 62.8548 76.25 63.3438V67.0312C76.25 67.5202 76.0557 67.9892 75.71 68.335C75.3642 68.6807 74.8952 68.875 74.4062 68.875H70.7188C70.2298 68.875 69.7608 68.6807 69.415 68.335C69.0693 67.9892 68.875 67.5202 68.875 67.0312V63.3438C68.875 62.8548 69.0693 62.3858 69.415 62.04C69.7608 61.6943 70.2298 61.5 70.7188 61.5Z" fill="url(#paint0_linear_1_514)"/>
</g>
<defs>
<filter id="filter0_d_1_514" x="0.5" y="0.5" width="120" height="120" filterUnits="userSpaceOnUse" color-interpolation-filters="sRGB">
<feFlood flood-opacity="0" result="BackgroundImageFix"/>
<feColorMatrix in="SourceAlpha" type="matrix" values="0 0 0 0 0 0 0 0 0 0 0 0 0 0 0 0 0 0 127 0" result="hardAlpha"/>
<feOffset dy="1"/>
<feGaussianBlur stdDeviation="2.75"/>
<feComposite in2="hardAlpha" operator="out"/>
<feColorMatrix type="matrix" values="0 0 0 0 0 0 0 0 0 0 0 0 0 0 0 0 0 0 0.25 0"/>
<feBlend mode="normal" in2="BackgroundImageFix" result="effect1_dropShadow_1_514"/>
<feBlend mode="normal" in="SourceGraphic" in2="effect1_dropShadow_1_514" result="shape"/>
</filter>
<filter id="filter1_i_1_514" x="32" y="32" width="59" height="63" filterUnits="userSpaceOnUse" color-interpolation-filters="sRGB">
<feFlood flood-opacity="0" result="BackgroundImageFix"/>
<feBlend mode="normal" in="SourceGraphic" in2="BackgroundImageFix" result="shape"/>
<feColorMatrix in="SourceAlpha" type="matrix" values="0 0 0 0 0 0 0 0 0 0 0 0 0 0 0 0 0 0 127 0" result="hardAlpha"/>
<feOffset dy="4"/>
<feGaussianBlur stdDeviation="2"/>
<feComposite in2="hardAlpha" operator="arithmetic" k2="-1" k3="1"/>
<feColorMatrix type="matrix" values="0 0 0 0 0 0 0 0 0 0 0 0 0 0 0 0 0 0 0.25 0"/>
<feBlend mode="normal" in2="shape" result="effect1_innerShadow_1_514"/>
</filter>
<linearGradient id="paint0_linear_1_514" x1="61.5" y1="32" x2="61.5" y2="91" gradientUnits="userSpaceOnUse">
<stop stop-color="#8F8F8F"/>
<stop offset="1" stop-color="#6D6D6D"/>
</linearGradient>
<clipPath id="clip0_1_514">
<rect width="59" height="59" fill="white" transform="translate(32 32)"/>
</clipPath>
</defs>
</svg>
