<svg width="121" height="121" viewBox="0 0 121 121" fill="none" xmlns="http://www.w3.org/2000/svg">
<g filter="url(#filter0_d_1_527)">
<rect x="6" y="5" width="109" height="109" rx="54.5" fill="#4D4D4D"/>
</g>
<g filter="url(#filter1_i_1_527)">
<path d="M60.1324 29C56.044 29 51.9957 29.7817 48.2185 31.3004C44.4414 32.8191 41.0094 35.0451 38.1185 37.8512C32.28 43.5186 29 51.2052 29 59.22C29 67.2349 32.28 74.9215 38.1185 80.5888C41.0094 83.395 44.4414 85.621 48.2185 87.1397C51.9957 88.6584 56.044 89.4401 60.1324 89.4401C68.3892 89.4401 76.3078 86.2562 82.1463 80.5888C87.9847 74.9215 91.2648 67.2349 91.2648 59.22C91.2648 55.2515 90.4595 51.3218 88.8949 47.6553C87.3304 43.9889 85.0372 40.6574 82.1463 37.8512C79.2554 35.0451 75.8234 32.8191 72.0462 31.3004C68.2691 29.7817 64.2207 29 60.1324 29ZM73.208 71.9125L57.0191 62.242V44.11H61.689V59.8244L75.6986 67.9839L73.208 71.9125Z" fill="url(#paint0_linear_1_527)" fill-opacity="0.3"/>
</g>
<defs>
<filter id="filter0_d_1_527" x="0.5" y="0.5" width="120" height="120" filterUnits="userSpaceOnUse" color-interpolation-filters="sRGB">
<feFlood flood-opacity="0" result="BackgroundImageFix"/>
<feColorMatrix in="SourceAlpha" type="matrix" values="0 0 0 0 0 0 0 0 0 0 0 0 0 0 0 0 0 0 127 0" result="hardAlpha"/>
<feOffset dy="1"/>
<feGaussianBlur stdDeviation="2.75"/>
<feComposite in2="hardAlpha" operator="out"/>
<feColorMatrix type="matrix" values="0 0 0 0 0 0 0 0 0 0 0 0 0 0 0 0 0 0 0.25 0"/>
<feBlend mode="normal" in2="BackgroundImageFix" result="effect1_dropShadow_1_527"/>
<feBlend mode="normal" in="SourceGraphic" in2="effect1_dropShadow_1_527" result="shape"/>
</filter>
<filter id="filter1_i_1_527" x="29" y="29" width="62.2646" height="64.4401" filterUnits="userSpaceOnUse" color-interpolation-filters="sRGB">
<feFlood flood-opacity="0" result="BackgroundImageFix"/>
<feBlend mode="normal" in="SourceGraphic" in2="BackgroundImageFix" result="shape"/>
<feColorMatrix in="SourceAlpha" type="matrix" values="0 0 0 0 0 0 0 0 0 0 0 0 0 0 0 0 0 0 127 0" result="hardAlpha"/>
<feOffset dy="4"/>
<feGaussianBlur stdDeviation="2"/>
<feComposite in2="hardAlpha" operator="arithmetic" k2="-1" k3="1"/>
<feColorMatrix type="matrix" values="0 0 0 0 0 0 0 0 0 0 0 0 0 0 0 0 0 0 0.25 0"/>
<feBlend mode="normal" in2="shape" result="effect1_innerShadow_1_527"/>
</filter>
<linearGradient id="paint0_linear_1_527" x1="60.1324" y1="29" x2="60.1324" y2="89.4401" gradientUnits="userSpaceOnUse">
<stop stop-color="white"/>
<stop offset="1" stop-color="#999999"/>
</linearGradient>
</defs>
</svg>
