<svg width="94" height="102" viewBox="0 0 94 102" fill="none" xmlns="http://www.w3.org/2000/svg">
<path d="M72.2725 0H14.4102V0.0868246V7.49792V57.0624L14.5838 65.4161L44.9662 83.3578L47.6702 84.9206L49.0035 84.0958L77.4138 66.582L79.7705 65.1246V56.3243V25.3404H72.2725V60.9446L47.5461 76.1948L21.9081 61.3912V7.49792H72.2725V25.3776H79.7705V7.49792V0H72.2725Z" fill="white"/>
<path d="M93.0015 73.05L94 15.0264H91.296H86.5021H83.0849V22.5243H86.5021V68.1816L47.5799 92.908L7.49792 68.9134V22.5243H11.0887V15.0264H7.49792H0V22.5243V74.2717L47.5799 101.714L93.0015 73.05Z" fill="#0C713F"/>
<path d="M46.0625 44.3497H48.7541C48.3572 40.945 47.9602 36.7402 47.5633 31.7354C46.7695 37.4844 46.2672 41.6892 46.0625 44.3497Z" fill="#0C713F"/>
<path d="M56.89 10.9971V14.3708H51.6929V10.9971H43.457V14.3708H37.8258V10.9971H29.5898V15.0282L29.6891 56.2389L47.3703 68.1524L65.1259 56.4125V15.0282V14.3708V10.9971H56.89Z" fill="#0C713F"/>
<path d="M79.7675 14.3691H72.2695V24.0625H79.7675V14.3691Z" fill="white"/>
<path d="M35.2949 25.6631H38.8919L47.8969 41.6016L56.9018 25.6631H60.4678V49.5274H58.4337V26.5561L48.9202 43.3877L52.387 49.5274H50.3528L47.9031 45.1986L45.4534 49.5274H43.4192L46.886 43.3877L37.3415 26.5251V49.5274H35.3073V25.6631H35.2949Z" fill="white" stroke="white" stroke-miterlimit="10"/>
</svg>
